<svg width="36" height="36" viewBox="0 0 36 36" fill="none" xmlns="http://www.w3.org/2000/svg">
<path d="M17.7244 35.2143C27.4485 35.2143 35.3315 27.3313 35.3315 17.6072C35.3315 7.883 27.4485 0 17.7244 0C8.00018 0 0.117188 7.883 0.117188 17.6072C0.117188 27.3313 8.00018 35.2143 17.7244 35.2143Z" fill="white"/>
<path d="M16.1788 16.9596C16.5276 16.4164 16.7269 15.7687 16.7153 15.074C16.6846 13.2152 15.1377 11.7383 13.2787 11.7383H8.08855C7.84549 11.7383 7.64844 11.9353 7.64844 12.1784V23.5922C7.64844 23.8353 7.84549 24.0324 8.08855 24.0324H13.8863C16.038 24.0324 17.8206 22.3075 17.8291 20.1558C17.8347 18.8371 17.1804 17.6681 16.1788 16.9596ZM9.92533 14.0152H13.3231C13.9383 14.0152 14.439 14.5158 14.439 15.1312C14.439 15.7464 13.9383 16.247 13.3231 16.247H9.92533V14.0152ZM13.9367 21.7554H9.92533V18.524H13.9367C14.8275 18.524 15.5524 19.2491 15.5524 20.1397C15.5523 21.0306 14.8276 21.7554 13.9367 21.7554Z" fill="#2B2326"/>
<path d="M27.8038 19.3472C27.8038 16.6897 25.7092 14.5273 23.1344 14.5273C20.5595 14.5273 18.4648 16.6897 18.4648 19.3472C18.4648 22.005 20.5597 24.1671 23.1344 24.1671C24.6966 24.1671 26.1484 23.3663 27.0178 22.0248C27.1261 21.8574 27.2246 21.6826 27.312 21.5025C27.3753 21.3717 27.2791 21.2195 27.1338 21.2193L24.8384 21.2135C24.7878 21.2135 24.7395 21.2342 24.7031 21.2696C24.2696 21.691 23.7384 21.8903 23.1345 21.8903C21.9937 21.8903 21.0376 21.0371 20.7994 19.8998H27.347C27.5993 19.8998 27.8039 19.6952 27.8039 19.4427V19.3472H27.8038V19.3472ZM23.1344 16.8043C23.9697 16.8043 24.7061 17.2623 25.1341 17.9539H21.1344C21.5625 17.2624 22.2989 16.8043 23.1344 16.8043Z" fill="#2B2326"/>
<path d="M25.0736 13.9613H20.9319C20.7388 13.9613 20.582 13.8046 20.582 13.6114V12.5725C20.582 12.3794 20.7388 12.2227 20.9319 12.2227H25.0736C25.2667 12.2227 25.4232 12.3794 25.4232 12.5725V13.6114C25.4233 13.8048 25.2667 13.9613 25.0736 13.9613Z" fill="#2B2326"/>
</svg>
