<svg width="16" height="14" viewBox="0 0 16 14" fill="none" xmlns="http://www.w3.org/2000/svg">
<path fill-rule="evenodd" clip-rule="evenodd" d="M0 2C0 1.44772 0.447715 1 1 1H15C15.5523 1 16 1.44772 16 2V13C16 13.5523 15.5523 14 15 14H1C0.447715 14 0 13.5523 0 13V2ZM2 3V12H14V3H2Z" fill="#2B2326"/>
<path fill-rule="evenodd" clip-rule="evenodd" d="M4 0C4.55228 0 5 0.447715 5 1V3C5 3.55228 4.55228 4 4 4C3.44772 4 3 3.55228 3 3V1C3 0.447715 3.44772 0 4 0Z" fill="#2B2326"/>
<path fill-rule="evenodd" clip-rule="evenodd" d="M8 0C8.55228 0 9 0.447715 9 1V3C9 3.55228 8.55228 4 8 4C7.44772 4 7 3.55228 7 3V1C7 0.447715 7.44772 0 8 0Z" fill="#2B2326"/>
<path fill-rule="evenodd" clip-rule="evenodd" d="M12 0C12.5523 0 13 0.447715 13 1V3C13 3.55228 12.5523 4 12 4C11.4477 4 11 3.55228 11 3V1C11 0.447715 11.4477 0 12 0Z" fill="#2B2326"/>
<path fill-rule="evenodd" clip-rule="evenodd" d="M0 6C0 5.44772 0.447715 5 1 5H15C15.5523 5 16 5.44772 16 6C16 6.55228 15.5523 7 15 7H1C0.447715 7 0 6.55228 0 6Z" fill="#2B2326"/>
</svg>
