<svg width="173" height="40" viewBox="0 0 173 40" fill="none" xmlns="http://www.w3.org/2000/svg">
<rect width="173" height="40" rx="20" fill="#FFD600"/>
<path d="M50.462 20.072C50.462 19.1013 50.672 18.238 51.092 17.482C51.512 16.7167 52.0953 16.124 52.842 15.704C53.598 15.2747 54.452 15.06 55.404 15.06C56.5707 15.06 57.5693 15.368 58.4 15.984C59.2307 16.6 59.786 17.44 60.066 18.504H57.434C57.238 18.0933 56.958 17.7807 56.594 17.566C56.2393 17.3513 55.8333 17.244 55.376 17.244C54.6387 17.244 54.0413 17.5007 53.584 18.014C53.1267 18.5273 52.898 19.2133 52.898 20.072C52.898 20.9307 53.1267 21.6167 53.584 22.13C54.0413 22.6433 54.6387 22.9 55.376 22.9C55.8333 22.9 56.2393 22.7927 56.594 22.578C56.958 22.3633 57.238 22.0507 57.434 21.64H60.066C59.786 22.704 59.2307 23.544 58.4 24.16C57.5693 24.7667 56.5707 25.07 55.404 25.07C54.452 25.07 53.598 24.86 52.842 24.44C52.0953 24.0107 51.512 23.418 51.092 22.662C50.672 21.906 50.462 21.0427 50.462 20.072ZM65.3881 25.112C64.6227 25.112 63.9321 24.9487 63.3161 24.622C62.7094 24.2953 62.2287 23.8287 61.8741 23.222C61.5287 22.6153 61.3561 21.906 61.3561 21.094C61.3561 20.2913 61.5334 19.5867 61.8881 18.98C62.2427 18.364 62.7281 17.8927 63.3441 17.566C63.9601 17.2393 64.6507 17.076 65.4161 17.076C66.1814 17.076 66.8721 17.2393 67.4881 17.566C68.1041 17.8927 68.5894 18.364 68.9441 18.98C69.2987 19.5867 69.4761 20.2913 69.4761 21.094C69.4761 21.8967 69.2941 22.606 68.9301 23.222C68.5754 23.8287 68.0854 24.2953 67.4601 24.622C66.8441 24.9487 66.1534 25.112 65.3881 25.112ZM65.3881 23.04C65.8454 23.04 66.2327 22.872 66.5501 22.536C66.8767 22.2 67.0401 21.7193 67.0401 21.094C67.0401 20.4687 66.8814 19.988 66.5641 19.652C66.2561 19.316 65.8734 19.148 65.4161 19.148C64.9494 19.148 64.5621 19.316 64.2541 19.652C63.9461 19.9787 63.7921 20.4593 63.7921 21.094C63.7921 21.7193 63.9414 22.2 64.2401 22.536C64.5481 22.872 64.9307 23.04 65.3881 23.04ZM75.8061 17.104C76.7208 17.104 77.4488 17.4027 77.9901 18C78.5408 18.588 78.8161 19.4 78.8161 20.436V25H76.4361V20.758C76.4361 20.2353 76.3008 19.8293 76.0301 19.54C75.7595 19.2507 75.3955 19.106 74.9381 19.106C74.4808 19.106 74.1168 19.2507 73.8461 19.54C73.5755 19.8293 73.4401 20.2353 73.4401 20.758V25H71.0461V17.188H73.4401V18.224C73.6828 17.8787 74.0095 17.608 74.4201 17.412C74.8308 17.2067 75.2928 17.104 75.8061 17.104ZM85.1337 22.97V25H83.9157C83.0477 25 82.3711 24.79 81.8857 24.37C81.4004 23.9407 81.1577 23.2453 81.1577 22.284V19.176H80.2057V17.188H81.1577V15.284H83.5517V17.188H85.1197V19.176H83.5517V22.312C83.5517 22.5453 83.6077 22.7133 83.7197 22.816C83.8317 22.9187 84.0184 22.97 84.2797 22.97H85.1337ZM86.2912 21.08C86.2912 20.2773 86.4406 19.5727 86.7392 18.966C87.0472 18.3593 87.4626 17.8927 87.9852 17.566C88.5079 17.2393 89.0912 17.076 89.7352 17.076C90.2859 17.076 90.7666 17.188 91.1772 17.412C91.5972 17.636 91.9192 17.93 92.1432 18.294V17.188H94.5372V25H92.1432V23.894C91.9099 24.258 91.5832 24.552 91.1632 24.776C90.7526 25 90.2719 25.112 89.7212 25.112C89.0866 25.112 88.5079 24.9487 87.9852 24.622C87.4626 24.286 87.0472 23.8147 86.7392 23.208C86.4406 22.592 86.2912 21.8827 86.2912 21.08ZM92.1432 21.094C92.1432 20.4967 91.9752 20.0253 91.6392 19.68C91.3126 19.3347 90.9112 19.162 90.4352 19.162C89.9592 19.162 89.5532 19.3347 89.2172 19.68C88.8906 20.016 88.7272 20.4827 88.7272 21.08C88.7272 21.6773 88.8906 22.1533 89.2172 22.508C89.5532 22.8533 89.9592 23.026 90.4352 23.026C90.9112 23.026 91.3126 22.8533 91.6392 22.508C91.9752 22.1627 92.1432 21.6913 92.1432 21.094ZM92.3252 15.242L88.9512 16.656V15.004L92.3252 13.38V15.242ZM96.0932 21.094C96.0932 20.282 96.2565 19.5727 96.5832 18.966C96.9192 18.3593 97.3812 17.8927 97.9692 17.566C98.5665 17.2393 99.2478 17.076 100.013 17.076C100.993 17.076 101.81 17.3327 102.463 17.846C103.126 18.3593 103.56 19.0827 103.765 20.016H101.217C101.003 19.4187 100.587 19.12 99.9712 19.12C99.5325 19.12 99.1825 19.2927 98.9212 19.638C98.6598 19.974 98.5292 20.4593 98.5292 21.094C98.5292 21.7287 98.6598 22.2187 98.9212 22.564C99.1825 22.9 99.5325 23.068 99.9712 23.068C100.587 23.068 101.003 22.7693 101.217 22.172H103.765C103.56 23.0867 103.126 23.8053 102.463 24.328C101.801 24.8507 100.984 25.112 100.013 25.112C99.2478 25.112 98.5665 24.9487 97.9692 24.622C97.3812 24.2953 96.9192 23.8287 96.5832 23.222C96.2565 22.6153 96.0932 21.906 96.0932 21.094ZM109.7 22.97V25H108.482C107.614 25 106.937 24.79 106.452 24.37C105.966 23.9407 105.724 23.2453 105.724 22.284V19.176H104.772V17.188H105.724V15.284H108.118V17.188H109.686V19.176H108.118V22.312C108.118 22.5453 108.174 22.7133 108.286 22.816C108.398 22.9187 108.584 22.97 108.846 22.97H109.7ZM110.857 21.08C110.857 20.2773 111.007 19.5727 111.305 18.966C111.613 18.3593 112.029 17.8927 112.551 17.566C113.074 17.2393 113.657 17.076 114.301 17.076C114.852 17.076 115.333 17.188 115.743 17.412C116.163 17.636 116.485 17.93 116.709 18.294V17.188H119.103V25H116.709V23.894C116.476 24.258 116.149 24.552 115.729 24.776C115.319 25 114.838 25.112 114.287 25.112C113.653 25.112 113.074 24.9487 112.551 24.622C112.029 24.286 111.613 23.8147 111.305 23.208C111.007 22.592 110.857 21.8827 110.857 21.08ZM116.709 21.094C116.709 20.4967 116.541 20.0253 116.205 19.68C115.879 19.3347 115.477 19.162 115.001 19.162C114.525 19.162 114.119 19.3347 113.783 19.68C113.457 20.016 113.293 20.4827 113.293 21.08C113.293 21.6773 113.457 22.1533 113.783 22.508C114.119 22.8533 114.525 23.026 115.001 23.026C115.477 23.026 115.879 22.8533 116.205 22.508C116.541 22.1627 116.709 21.6913 116.709 21.094ZM125.895 17.104C126.81 17.104 127.538 17.4027 128.079 18C128.63 18.588 128.905 19.4 128.905 20.436V25H126.525V20.758C126.525 20.2353 126.39 19.8293 126.119 19.54C125.849 19.2507 125.485 19.106 125.027 19.106C124.57 19.106 124.206 19.2507 123.935 19.54C123.665 19.8293 123.529 20.2353 123.529 20.758V25H121.135V17.188H123.529V18.224C123.772 17.8787 124.099 17.608 124.509 17.412C124.92 17.2067 125.382 17.104 125.895 17.104ZM134.425 25.112C133.659 25.112 132.969 24.9487 132.353 24.622C131.746 24.2953 131.265 23.8287 130.911 23.222C130.565 22.6153 130.393 21.906 130.393 21.094C130.393 20.2913 130.57 19.5867 130.925 18.98C131.279 18.364 131.765 17.8927 132.381 17.566C132.997 17.2393 133.687 17.076 134.453 17.076C135.218 17.076 135.909 17.2393 136.525 17.566C137.141 17.8927 137.626 18.364 137.981 18.98C138.335 19.5867 138.513 20.2913 138.513 21.094C138.513 21.8967 138.331 22.606 137.967 23.222C137.612 23.8287 137.122 24.2953 136.497 24.622C135.881 24.9487 135.19 25.112 134.425 25.112ZM134.425 23.04C134.882 23.04 135.269 22.872 135.587 22.536C135.913 22.2 136.077 21.7193 136.077 21.094C136.077 20.4687 135.918 19.988 135.601 19.652C135.293 19.316 134.91 19.148 134.453 19.148C133.986 19.148 133.599 19.316 133.291 19.652C132.983 19.9787 132.829 20.4593 132.829 21.094C132.829 21.7193 132.978 22.2 133.277 22.536C133.585 22.872 133.967 23.04 134.425 23.04ZM143.261 25.112C142.58 25.112 141.973 24.9953 141.441 24.762C140.909 24.5287 140.489 24.2113 140.181 23.81C139.873 23.3993 139.7 22.942 139.663 22.438H142.029C142.057 22.7087 142.183 22.928 142.407 23.096C142.631 23.264 142.906 23.348 143.233 23.348C143.532 23.348 143.76 23.292 143.919 23.18C144.087 23.0587 144.171 22.9047 144.171 22.718C144.171 22.494 144.054 22.3307 143.821 22.228C143.588 22.116 143.21 21.9947 142.687 21.864C142.127 21.7333 141.66 21.598 141.287 21.458C140.914 21.3087 140.592 21.08 140.321 20.772C140.05 20.4547 139.915 20.03 139.915 19.498C139.915 19.05 140.036 18.644 140.279 18.28C140.531 17.9067 140.895 17.6127 141.371 17.398C141.856 17.1833 142.43 17.076 143.093 17.076C144.073 17.076 144.843 17.3187 145.403 17.804C145.972 18.2893 146.299 18.9333 146.383 19.736H144.171C144.134 19.4653 144.012 19.2507 143.807 19.092C143.611 18.9333 143.35 18.854 143.023 18.854C142.743 18.854 142.528 18.91 142.379 19.022C142.23 19.1247 142.155 19.2693 142.155 19.456C142.155 19.68 142.272 19.848 142.505 19.96C142.748 20.072 143.121 20.184 143.625 20.296C144.204 20.4453 144.675 20.5947 145.039 20.744C145.403 20.884 145.72 21.1173 145.991 21.444C146.271 21.7613 146.416 22.1907 146.425 22.732C146.425 23.1893 146.294 23.6 146.033 23.964C145.781 24.3187 145.412 24.5987 144.927 24.804C144.451 25.0093 143.896 25.112 143.261 25.112Z" fill="#2B2326"/>
<path fill-rule="evenodd" clip-rule="evenodd" d="M25 15C25 14.4477 25.4477 14 26 14H40C40.5523 14 41 14.4477 41 15V26C41 26.5523 40.5523 27 40 27H26C25.4477 27 25 26.5523 25 26V15ZM27 16V25H39V16H27Z" fill="#2B2326"/>
<path fill-rule="evenodd" clip-rule="evenodd" d="M29 13C29.5523 13 30 13.4477 30 14V16C30 16.5523 29.5523 17 29 17C28.4477 17 28 16.5523 28 16V14C28 13.4477 28.4477 13 29 13Z" fill="#2B2326"/>
<path fill-rule="evenodd" clip-rule="evenodd" d="M33 13C33.5523 13 34 13.4477 34 14V16C34 16.5523 33.5523 17 33 17C32.4477 17 32 16.5523 32 16V14C32 13.4477 32.4477 13 33 13Z" fill="#2B2326"/>
<path fill-rule="evenodd" clip-rule="evenodd" d="M37 13C37.5523 13 38 13.4477 38 14V16C38 16.5523 37.5523 17 37 17C36.4477 17 36 16.5523 36 16V14C36 13.4477 36.4477 13 37 13Z" fill="#2B2326"/>
<path fill-rule="evenodd" clip-rule="evenodd" d="M25 19C25 18.4477 25.4477 18 26 18H40C40.5523 18 41 18.4477 41 19C41 19.5523 40.5523 20 40 20H26C25.4477 20 25 19.5523 25 19Z" fill="#2B2326"/>
</svg>
