<svg width="35" height="36" viewBox="0 0 35 36" fill="none" xmlns="http://www.w3.org/2000/svg">
<path d="M17.6174 35.2143C27.1509 35.2143 34.8793 27.3313 34.8793 17.6072C34.8793 7.883 27.1509 0 17.6174 0C8.0839 0 0.355469 7.883 0.355469 17.6072C0.355469 27.3313 8.0839 35.2143 17.6174 35.2143Z" fill="white"/>
<path d="M17.6186 7.54102C12.1706 7.54102 7.73828 12.0566 7.73828 17.6065C7.73828 23.1564 12.1706 27.6717 17.6186 27.6717C23.0669 27.6717 27.4994 23.1567 27.4994 17.6065C27.4994 12.0566 23.0669 7.54102 17.6186 7.54102ZM24.1203 12.2918C25.2473 13.7166 25.9322 15.516 25.9638 17.4767C25.5889 17.3982 24.0006 17.0961 22.1026 17.0961C21.4902 17.0961 20.8457 17.1274 20.1995 17.2088C20.145 17.0735 20.0903 16.9387 20.033 16.8026C19.8654 16.4005 19.6849 16.0017 19.4978 15.6086C22.4189 14.3811 23.828 12.6774 24.1203 12.2918ZM17.6186 9.11665C19.724 9.11665 21.6485 9.91448 23.1184 11.2285C22.8857 11.5524 21.6238 13.1613 18.8071 14.2468C17.5033 11.8159 16.0763 9.80306 15.7367 9.33564C16.3419 9.19265 16.9719 9.11665 17.6186 9.11665ZM14.033 9.94164C14.3208 10.346 15.75 12.3804 17.0873 14.7917C13.4984 15.754 10.3115 15.8167 9.54229 15.8167H9.46056C10.0131 13.2192 11.7337 11.0608 14.033 9.94164ZM9.27115 17.6198C9.27115 17.5497 9.2723 17.4796 9.27453 17.41C9.32442 17.4106 9.39812 17.4106 9.49367 17.4106C10.5296 17.4106 14.1255 17.3233 17.8309 16.2017C18.0559 16.6503 18.2699 17.1058 18.4691 17.5609C18.3755 17.5883 18.2832 17.6157 18.1915 17.6463C14.0193 19.0207 11.7261 22.6594 11.3732 23.2542C10.0658 21.7515 9.27115 19.7789 9.27115 17.6198ZM17.6186 26.1224C15.7041 26.1224 13.9373 25.461 12.5274 24.352C12.7659 23.8751 14.4967 20.6965 19.0689 19.0733C19.0717 19.0721 19.0747 19.071 19.0781 19.0702C20.2246 22.1147 20.7102 24.6699 20.8433 25.4618C19.851 25.8873 18.7614 26.1224 17.6186 26.1224ZM22.3467 24.6235C22.2347 23.9684 21.785 21.5737 20.7468 18.653C21.3291 18.5606 21.8956 18.5241 22.4268 18.5241C24.1714 18.5241 25.5363 18.9137 25.8533 19.0126C25.4763 21.3319 24.1745 23.339 22.3467 24.6235Z" fill="#2B2326"/>
</svg>
