<svg width="36" height="36" viewBox="0 0 36 36" fill="none" xmlns="http://www.w3.org/2000/svg">
<path d="M17.8454 35.2142C27.5695 35.2142 35.4525 27.3312 35.4525 17.6071C35.4525 7.88297 27.5695 0 17.8454 0C8.12125 0 0.238281 7.88297 0.238281 17.6071C0.238281 27.3312 8.12125 35.2142 17.8454 35.2142Z" fill="white"/>
<path d="M25.2059 7.5293H10.4817C8.98168 7.5293 7.76562 8.74529 7.76562 10.2453V24.9696C7.76562 26.4697 8.98161 27.6856 10.4817 27.6856H17.7435L17.7561 20.4831H15.8846C15.6414 20.4831 15.444 20.2864 15.4432 20.0432L15.4341 17.7213C15.4331 17.477 15.6313 17.2781 15.8756 17.2781H17.7438V15.0347C17.7438 12.4314 19.3338 11.0138 21.6561 11.0138H23.5619C23.8056 11.0138 24.0035 11.2115 24.0035 11.4553V13.413C24.0035 13.6568 23.8058 13.8545 23.5622 13.8545L22.3926 13.8552C21.1296 13.8552 20.8849 14.4553 20.8849 15.3362V17.2784H23.6602C23.9248 17.2784 24.1299 17.5094 24.0986 17.7717L23.8234 20.0936C23.7972 20.3159 23.6087 20.4832 23.385 20.4832H20.8974L20.8848 27.6861H25.2059C26.7058 27.6861 27.9219 26.4699 27.9219 24.97V10.2453C27.922 8.74536 26.7059 7.5293 25.2059 7.5293Z" fill="#2B2326"/>
</svg>
