<svg width="37" height="36" viewBox="0 0 37 36" fill="none" xmlns="http://www.w3.org/2000/svg">
<path d="M18.3962 35.2143C28.1204 35.2143 36.0034 27.3313 36.0034 17.6072C36.0034 7.883 28.1204 0 18.3962 0C8.67206 0 0.789062 7.883 0.789062 17.6072C0.789062 27.3313 8.67206 35.2143 18.3962 35.2143Z" fill="white"/>
<path d="M22.472 7.5293H14.3249C11.0139 7.5293 8.32031 10.2229 8.32031 13.5339V21.681C8.32031 24.9918 11.0139 27.6857 14.325 27.6857H22.4721C25.7829 27.6857 28.4767 24.992 28.4767 21.681V13.5339C28.4767 10.2229 25.783 7.5293 22.472 7.5293ZM26.449 21.6811C26.449 23.8774 24.6684 25.6579 22.4721 25.6579H14.325C12.1286 25.6579 10.3481 23.8774 10.3481 21.6811V13.534C10.3481 11.3376 12.1286 9.55701 14.325 9.55701H22.4721C24.6684 9.55701 26.449 11.3377 26.449 13.534V21.6811Z" fill="#2B2326"/>
<path d="M18.3968 12.3945C15.5223 12.3945 13.1836 14.7333 13.1836 17.6078C13.1836 20.4821 15.5223 22.8208 18.3968 22.8208C21.2713 22.8208 23.6099 20.4823 23.6099 17.6078C23.6099 14.7333 21.2713 12.3945 18.3968 12.3945ZM18.3968 20.7931C16.6376 20.7931 15.2113 19.3671 15.2113 17.6078C15.2113 15.8484 16.6376 14.4222 18.3968 14.4222C20.1561 14.4222 21.5821 15.8484 21.5821 17.6078C21.5821 19.367 20.1561 20.7931 18.3968 20.7931Z" fill="#2B2326"/>
<path d="M24.8695 12.4328C24.8695 13.1227 24.3102 13.682 23.6203 13.682C22.9305 13.682 22.3711 13.1227 22.3711 12.4328C22.3711 11.7429 22.9305 11.1836 23.6203 11.1836C24.3104 11.1836 24.8695 11.7428 24.8695 12.4328Z" fill="#2B2326"/>
</svg>
