<svg width="36" height="36" viewBox="0 0 36 36" fill="none" xmlns="http://www.w3.org/2000/svg">
<path d="M17.6071 35.2142C27.3312 35.2142 35.2142 27.3312 35.2142 17.6071C35.2142 7.88297 27.3312 0 17.6071 0C7.88297 0 0 7.88297 0 17.6071C0 27.3312 7.88297 35.2142 17.6071 35.2142Z" fill="white"/>
<path d="M25.8603 7.5293H9.35064C8.34353 7.5293 7.52734 8.34548 7.52734 9.35259V25.8621C7.52734 26.869 8.34353 27.6854 9.35064 27.6854H25.8602C26.867 27.6854 27.6835 26.869 27.6835 25.8621V9.35259C27.6836 8.34548 26.8672 7.5293 25.8603 7.5293ZM13.7645 24.9334C13.7645 25.2266 13.527 25.4641 13.2338 25.4641H10.9754C10.6822 25.4641 10.4447 25.2265 10.4447 24.9334V15.4654C10.4447 15.1722 10.6823 14.9347 10.9754 14.9347H13.234C13.5272 14.9347 13.7647 15.1724 13.7647 15.4654V24.9334H13.7645ZM12.1046 14.0421C10.9195 14.0421 9.95898 13.0814 9.95898 11.8962C9.95898 10.7112 10.9195 9.75061 12.1046 9.75061C13.2897 9.75061 14.2503 10.7114 14.2503 11.8962C14.2503 13.0815 13.2897 14.0421 12.1046 14.0421ZM25.568 24.9762C25.568 25.2457 25.3497 25.4643 25.0804 25.4643H22.6565C22.3873 25.4643 22.1688 25.2458 22.1688 24.9762V20.535C22.1688 19.8726 22.3631 17.6319 20.4375 17.6319C18.9437 17.6319 18.6407 19.1656 18.5799 19.8536V24.9761C18.5799 25.2455 18.3616 25.4641 18.092 25.4641H15.7479C15.4785 25.4641 15.2599 25.2456 15.2599 24.9761V15.4226C15.2599 15.1532 15.4784 14.9346 15.7479 14.9346H18.092C18.3615 14.9346 18.5799 15.1531 18.5799 15.4226V16.2486C19.1339 15.4174 19.9571 14.7756 21.7095 14.7756C25.5902 14.7756 25.5682 18.4014 25.5682 20.3938V24.9763H25.568V24.9762Z" fill="#2B2326"/>
</svg>
