<svg width="201" height="52" viewBox="0 0 201 52" fill="none" xmlns="http://www.w3.org/2000/svg">
<path d="M104.845 45.7576C104.845 46.5028 104.68 47.0958 104.35 47.5364C104.024 47.977 103.573 48.1974 102.998 48.1974C102.444 48.1974 102.012 47.9948 101.703 47.5896L101.65 48.1086H100.688V41.2949H101.751V43.7702C102.057 43.4035 102.47 43.2202 102.989 43.2202C103.567 43.2202 104.021 43.4375 104.35 43.8722C104.68 44.307 104.845 44.9147 104.845 45.6954V45.7576ZM103.781 45.6644C103.781 45.1439 103.691 44.7535 103.51 44.4933C103.329 44.233 103.067 44.1029 102.722 44.1029C102.261 44.1029 101.938 44.307 101.751 44.7151V46.6936C101.941 47.1105 102.267 47.319 102.731 47.319C103.064 47.319 103.32 47.1933 103.501 46.942C103.682 46.6906 103.776 46.3106 103.781 45.8019V45.6644Z" fill="#2B2326"/>
<path d="M107.344 46.5649L108.306 43.3089H109.44L107.558 48.8361C107.269 49.6435 106.779 50.0472 106.088 50.0472C105.933 50.0472 105.762 50.0206 105.576 49.9673V49.1334L105.777 49.1467C106.045 49.1467 106.247 49.0964 106.381 48.9958C106.518 48.8983 106.626 48.7326 106.705 48.499L106.858 48.0865L105.195 43.3089H106.341L107.344 46.5649Z" fill="#2B2326"/>
<path d="M154.544 39.2754C154.174 39.2754 153.871 39.5413 153.871 39.8663V49.4565C153.871 49.7815 154.174 50.0474 154.544 50.0474C154.915 50.0474 155.218 49.7815 155.218 49.4565V39.8663C155.218 39.5413 154.915 39.2754 154.544 39.2754Z" fill="#2B2326"/>
<path d="M185.515 39.2754C182.544 39.2754 180.129 41.6908 180.129 44.6614C180.129 47.632 182.544 50.0474 185.515 50.0474C188.485 50.0474 190.901 47.632 190.901 44.6614C190.901 41.6908 188.485 39.2754 185.515 39.2754ZM185.515 48.8604C183.2 48.8604 181.31 46.9764 181.31 44.6555C181.31 42.3345 183.194 40.4506 185.515 40.4506C187.836 40.4506 189.72 42.3345 189.72 44.6555C189.72 46.9764 187.836 48.8604 185.515 48.8604Z" fill="#2B2326"/>
<path d="M146.056 40.4624C147.351 40.4624 148.572 41.0058 149.414 41.9448C149.637 42.1928 150.028 42.2223 150.288 42.0097C150.548 41.7971 150.579 41.4251 150.356 41.177C149.278 39.9723 147.711 39.2754 146.056 39.2754C142.94 39.2754 140.406 41.6908 140.406 44.6614C140.406 47.632 142.94 50.0474 146.056 50.0474C147.711 50.0474 149.278 49.3564 150.356 48.1458C150.579 47.8977 150.548 47.5257 150.288 47.3131C150.028 47.1005 149.637 47.13 149.414 47.378C148.572 48.3229 147.351 48.8604 146.056 48.8604C143.628 48.8604 141.645 46.9764 141.645 44.6555C141.645 42.3345 143.628 40.4624 146.056 40.4624Z" fill="#2B2326"/>
<path d="M176.861 48.8656H173.872V39.8663C173.872 39.5413 173.613 39.2754 173.297 39.2754C172.981 39.2754 172.723 39.5413 172.723 39.8663V49.4565C172.723 49.7815 172.981 50.0474 173.297 50.0474H176.861C177.177 50.0474 177.435 49.7815 177.435 49.4565C177.435 49.1315 177.177 48.8656 176.861 48.8656Z" fill="#2B2326"/>
<path d="M164.531 40.4624C165.74 40.4624 166.879 41.0058 167.665 41.9448C167.873 42.1928 168.238 42.2223 168.481 42.0097C168.723 41.7971 168.752 41.4251 168.544 41.177C167.538 39.9723 166.075 39.2754 164.531 39.2754C161.623 39.2754 159.258 41.6908 159.258 44.6614C159.258 47.632 161.623 50.0474 164.531 50.0474C166.075 50.0474 167.544 49.3564 168.544 48.1458C168.752 47.8977 168.723 47.5257 168.481 47.3131C168.238 47.1005 167.873 47.13 167.665 47.378C166.879 48.3229 165.74 48.8604 164.531 48.8604C162.265 48.8604 160.414 46.9764 160.414 44.6555C160.414 42.3345 162.265 40.4624 164.531 40.4624Z" fill="#2B2326"/>
<path d="M200.117 44.5716C199.647 44.0749 199.021 43.726 198.417 43.383C197.4 42.8153 196.785 42.425 196.785 41.8041C196.785 41.7864 196.785 41.7568 196.78 41.745C196.78 41.7272 196.752 41.2896 197.143 40.8757C197.674 40.3139 198.54 40.3139 199.071 40.8757C199.289 41.1063 199.642 41.1063 199.86 40.8757C200.078 40.6451 200.078 40.2725 199.86 40.0419C198.893 39.0189 197.322 39.0189 196.349 40.0478C195.639 40.7988 195.645 41.6267 195.662 41.8455C195.678 43.2056 196.852 43.862 197.892 44.4415C198.423 44.7372 198.976 45.0447 199.329 45.4172C200.072 46.2037 200.072 47.4869 199.329 48.2793C198.585 49.0658 197.372 49.0658 196.623 48.2793C196.226 47.8594 196.025 47.2799 196.07 46.6827C196.092 46.3574 195.863 46.0736 195.555 46.044C195.242 46.0204 194.98 46.2628 194.952 46.5881C194.879 47.5283 195.198 48.4508 195.829 49.1131C196.422 49.7399 197.193 50.0474 197.97 50.0474C198.747 50.0474 199.524 49.734 200.111 49.1131C201.296 47.8535 201.296 45.8252 200.117 44.5716Z" fill="#2B2326"/>
<path d="M125.429 39.9042C124.436 40.949 123.732 42.3421 123.057 43.6916C121.921 45.9492 121.14 47.3236 119.898 47.3236C119.868 47.3236 119.809 47.3298 119.774 47.3298C119.738 47.3298 118.863 47.3982 118.034 46.5213C116.91 45.3397 116.904 43.4118 118.028 42.2302C118.49 41.7451 118.49 40.9553 118.028 40.4702C117.567 39.9851 116.816 39.9851 116.354 40.4702C114.313 42.622 114.313 46.1233 116.36 48.2751C117.863 49.8547 119.519 49.8361 119.951 49.805C122.673 49.7677 123.986 47.1557 125.146 44.8484C125.743 43.6605 126.358 42.4354 127.098 41.658C128.677 39.9975 131.245 39.9975 132.819 41.658C134.392 43.3185 134.398 46.0114 132.819 47.6718C131.979 48.5549 130.819 49.0027 129.63 48.897C128.979 48.841 128.405 49.351 128.358 50.0351C128.305 50.7254 128.79 51.3162 129.441 51.3722C131.322 51.5339 133.162 50.8187 134.493 49.4256C135.741 48.1134 136.368 46.3845 136.368 44.6618C136.368 42.9329 135.741 41.2102 134.493 39.8918C131.996 37.2736 127.926 37.2736 125.429 39.9042Z" fill="#FF0062"/>
<path d="M0 24.4613H4.58512V8.40464H4.6475L17.0304 24.9317H20.3367V0.815376H15.7516V16.7152H15.6892L3.30628 0.188163H0V24.4613Z" fill="#2B2326"/>
<path d="M38.0156 9.06321H33.7112V10.5058C32.6507 9.25138 31.0288 8.56145 29.438 8.56145C25.04 8.56145 22.4511 12.607 22.4511 16.6838C22.4511 20.8548 25.0088 24.963 29.5004 24.963C31.0911 24.963 32.7131 24.2731 33.6488 23.05H33.7112V24.4613H38.0156V9.06321ZM30.4985 21.0743C28.2527 21.0743 26.8803 18.8164 26.8803 16.7466C26.8803 14.6768 28.2527 12.4502 30.4985 12.4502C32.7443 12.4502 34.1479 14.6768 34.1479 16.7466C34.1479 18.8164 32.7443 21.0743 30.4985 21.0743Z" fill="#2B2326"/>
<path d="M45.5461 9.06321H41.1793V24.4613H45.5461V16.9034C45.5461 15.2726 45.4213 12.0738 47.8543 12.0738C50.1312 12.0738 49.9441 15.1472 49.9441 16.6525V24.4613H54.3109V16.9034C54.3109 15.304 54.2797 12.0738 56.6502 12.0738C58.8024 12.0738 58.7088 14.8649 58.7088 16.3702V24.4613H63.0756V14.8649C63.0756 11.5093 62.1087 8.56145 58.2098 8.56145C56.4319 8.56145 54.6851 9.4709 53.7494 10.9762C52.7513 9.34546 51.2541 8.56145 49.3514 8.56145C47.9478 8.56145 46.4506 9.22002 45.6085 10.4431H45.5461V9.06321Z" fill="#2B2326"/>
<path d="M70.7723 9.06321H66.4055V24.4613H70.7723V9.06321ZM68.5889 0C67.1541 0 66 1.1917 66 2.60293C66 4.04552 67.1541 5.20586 68.5889 5.20586C70.0237 5.20586 71.1778 4.04552 71.1778 2.60293C71.1778 1.1917 70.0237 0 68.5889 0Z" fill="#2B2326"/>
<path d="M78.4432 9.06321H74.0764V24.4613H78.4432V16.8406C78.4432 14.9904 78.4744 12.0738 81.0632 12.0738C83.5273 12.0738 83.4338 14.4572 83.4338 16.3075V24.4613H87.8005V15.0531C87.8005 11.478 86.6153 8.56145 82.498 8.56145C80.9385 8.56145 79.4101 9.09458 78.5055 10.4744H78.4432V9.06321Z" fill="#2B2326"/>
<path d="M105.331 9.06321H100.964V10.5372H100.902C100.029 9.34546 98.4692 8.56145 96.9408 8.56145C92.3869 8.56145 89.8292 12.6383 89.8292 16.872C89.8292 21.0116 92.2309 24.963 96.7225 24.963C98.3444 24.963 99.9664 24.179 100.902 22.9246H100.964V23.9281C100.964 26.2488 100.902 28.9772 97.8142 28.9772C96.161 28.9772 95.007 27.9109 94.7886 26.2802H90.1723C90.3906 30.3884 94.1648 32.6778 97.9077 32.6778C103.647 32.6778 105.331 28.5381 105.331 23.5205V9.06321ZM97.8765 21.0743C95.6308 21.0743 94.2584 18.8477 94.2584 16.7779C94.2584 14.7081 95.6308 12.4502 97.8765 12.4502C100.122 12.4502 101.495 14.7081 101.495 16.7779C101.495 18.8477 100.122 21.0743 97.8765 21.0743Z" fill="#2B2326"/>
<path d="M113.307 24.4613H119.826C126.532 24.4613 131.21 19.3181 131.21 12.6697C131.21 5.92715 126.656 0.815376 119.857 0.815376H113.307V24.4613ZM117.892 4.82953H118.64C123.849 4.82953 126.469 7.49518 126.469 12.6383C126.469 17.3111 124.286 20.4471 118.64 20.4471H117.892V4.82953Z" fill="#2B2326"/>
<path d="M146.946 17.4679V16.9347C146.946 12.2934 144.7 8.56145 139.678 8.56145C134.719 8.56145 132.255 12.2306 132.255 16.9034C132.255 21.5761 135.156 24.963 139.897 24.963C143.109 24.963 145.792 23.2382 146.852 20.1649L142.829 19.5063C142.236 20.7294 141.331 21.6075 139.897 21.6075C137.62 21.6075 136.871 19.4122 136.871 17.4679H146.946ZM136.996 14.7395C137.214 13.1401 138.181 11.6348 139.928 11.6348C141.612 11.6348 142.61 13.1715 142.829 14.7395H136.996Z" fill="#2B2326"/>
<path d="M158.704 10.1608C157.457 9.06322 155.398 8.56145 153.776 8.56145C150.906 8.56145 148.91 10.6626 148.91 13.5478C148.91 16.0253 150.439 16.9347 151.967 17.5933C153.495 18.2519 155.024 18.5655 155.024 19.914C155.024 20.9175 154.244 21.5761 153.277 21.5761C151.998 21.5761 150.875 20.7294 150.033 19.7885L148.037 22.3915C149.378 24.0222 151.374 24.963 153.433 24.963C156.646 24.963 159.39 22.9246 159.39 19.5063C159.39 16.8406 157.831 15.7744 156.24 15.0845C154.681 14.3945 153.09 14.0809 153.09 12.9519C153.09 12.1993 153.807 11.6348 154.525 11.6348C155.398 11.6348 156.209 12.1052 156.833 12.701L158.704 10.1608Z" fill="#2B2326"/>
<path d="M166.351 9.06321H161.984V24.4613H166.351V9.06321ZM164.168 0C162.733 0 161.579 1.1917 161.579 2.60293C161.579 4.04552 162.733 5.20586 164.168 5.20586C165.602 5.20586 166.757 4.04552 166.757 2.60293C166.757 1.1917 165.602 0 164.168 0Z" fill="#2B2326"/>
<path d="M184.065 9.06321H179.699V10.5372H179.636C178.763 9.34546 177.203 8.56145 175.675 8.56145C171.121 8.56145 168.563 12.6383 168.563 16.872C168.563 21.0116 170.965 24.963 175.457 24.963C177.079 24.963 178.701 24.179 179.636 22.9246H179.699V23.9281C179.699 26.2488 179.636 28.9772 176.548 28.9772C174.895 28.9772 173.741 27.9109 173.523 26.2802H168.907C169.125 30.3884 172.899 32.6778 176.642 32.6778C182.381 32.6778 184.065 28.5381 184.065 23.5205V9.06321ZM176.611 21.0743C174.365 21.0743 172.993 18.8477 172.993 16.7779C172.993 14.7081 174.365 12.4502 176.611 12.4502C178.857 12.4502 180.229 14.7081 180.229 16.7779C180.229 18.8477 178.857 21.0743 176.611 21.0743Z" fill="#2B2326"/>
<path d="M191.537 9.06321H187.17V24.4613H191.537V16.8406C191.537 14.9904 191.568 12.0738 194.157 12.0738C196.621 12.0738 196.527 14.4572 196.527 16.3075V24.4613H200.894V15.0531C200.894 11.478 199.709 8.56145 195.591 8.56145C194.032 8.56145 192.503 9.09458 191.599 10.4744H191.537V9.06321Z" fill="#2B2326"/>
</svg>
